# xmcd CD database file
#
# Track frame offsets:
#	150
#	20496
#	43185
#	66017
#	84289
#	104864
#	125609
#	146259
#	166562
#	187421
#	208402
#	229436
#	244176
#	263690
#
# Disc length: 3722 seconds
#
# Revision: 0
# Processed by: cddbd v1.5.2PL0 Copyright (c) Steve Scherf et al.
# Submitted via: CDex 1.51
#
DISCID=cf0e880e
DTITLE=Jaime Pineda Oscar Gómez - Caribe - Chill Room
DYEAR=1900
DGENRE=Salsa
TTITLE0=Guajira's Hallucination
TTITLE1=After Hours Beat
TTITLE2=Jazzin' Festival
TTITLE3=Crying-Never Get Enough
TTITLE4=Maracaibo Groovy
TTITLE5=Skin Resurrection
TTITLE6=159th St. Interludio
TTITLE7=Trippin' on Acid
TTITLE8=Viaje al Interior
TTITLE9=Vibra mi Tribu
TTITLE10=Tangerine Girl
TTITLE11=Black Taganga
TTITLE12=Guajira's Hallucination (Club Mix)
TTITLE13=Trippin' on Acid (Bizarre Mix Version)
EXTD=
EXTT0=
EXTT1=
EXTT2=
EXTT3=
EXTT4=
EXTT5=
EXTT6=
EXTT7=
EXTT8=
EXTT9=
EXTT10=
EXTT11=
EXTT12=
EXTT13=
PLAYORDER=
